# Blender v2.79 (sub 0) OBJ File: '000 Basic Minetest Cube.blend'
# www.blender.org
o Cube
v 0.437500 -0.312500 0.375000
v 0.437500 1.312500 0.375000
v 0.437500 -0.312500 0.500000
v 0.437500 1.312500 0.500000
v -1.437500 -0.312500 0.375000
v -1.437500 1.312500 0.375000
v -1.437500 -0.312500 0.500000
v -1.437500 1.312500 0.500000
vt 0.027778 0.484375
vt 0.861111 0.484375
vt 0.861111 0.515625
vt 0.027778 0.515625
vt 0.027778 0.484375
vt 0.861111 0.484375
vt 0.861111 0.515625
vt 0.027778 0.515625
vt 0.916667 0.046875
vt 0.972222 0.046875
vt 0.972222 0.453125
vt 0.916667 0.453125
vt 0.916667 0.046875
vt 0.972222 0.046875
vt 0.972222 0.453125
vt 0.916667 0.453125
vt 0.861111 0.046875
vt 0.861111 0.453125
vt 0.027778 0.453125
vt 0.027778 0.046875
vt 0.861111 0.546875
vt 0.861111 0.953125
vt 0.027778 0.953125
vt 0.027778 0.546875
vn 0.0000 1.0000 0.0000
vn 0.0000 -1.0000 0.0000
vn -1.0000 0.0000 0.0000
vn 1.0000 0.0000 0.0000
vn 0.0000 0.0000 1.0000
vn 0.0000 0.0000 -1.0000
g Cube_Cube_top
s off
f 8/1/1 4/2/1 2/3/1 6/4/1
g Cube_Cube_bottom
f 3/5/2 7/6/2 5/7/2 1/8/2
g Cube_Cube_right
f 7/9/3 8/10/3 6/11/3 5/12/3
g Cube_Cube_left
f 1/13/4 2/14/4 4/15/4 3/16/4
g Cube_Cube_back
f 3/17/5 4/18/5 8/19/5 7/20/5
g Cube_Cube_front
f 5/21/6 6/22/6 2/23/6 1/24/6
