# Blender v2.79 (sub 0) OBJ File: 'street signs regulatory 36x42.blend'
# www.blender.org
o Cube
v 0.395230 -0.500000 -0.533400
v 0.457200 -0.500000 -0.471430
v 0.407320 -0.500000 -0.532209
v 0.418945 -0.500000 -0.528683
v 0.429659 -0.500000 -0.522956
v 0.439049 -0.500000 -0.515249
v 0.446756 -0.500000 -0.505859
v 0.452483 -0.500000 -0.495145
v 0.456009 -0.500000 -0.483520
v 0.457200 -0.437500 -0.471430
v 0.395230 -0.437500 -0.533400
v 0.456009 -0.437500 -0.483520
v 0.452483 -0.437500 -0.495145
v 0.446756 -0.437500 -0.505859
v 0.439049 -0.437500 -0.515249
v 0.429659 -0.437500 -0.522956
v 0.418945 -0.437500 -0.528683
v 0.407320 -0.437500 -0.532209
v 0.457200 -0.500000 0.471430
v 0.395230 -0.500000 0.533400
v 0.456009 -0.500000 0.483520
v 0.452483 -0.500000 0.495145
v 0.446756 -0.500000 0.505859
v 0.439049 -0.500000 0.515249
v 0.429659 -0.500000 0.522956
v 0.418945 -0.500000 0.528683
v 0.407320 -0.500000 0.532209
v 0.395230 -0.437500 0.533400
v 0.457200 -0.437500 0.471430
v 0.407320 -0.437500 0.532209
v 0.418945 -0.437500 0.528683
v 0.429659 -0.437500 0.522956
v 0.439049 -0.437500 0.515249
v 0.446756 -0.437500 0.505859
v 0.452483 -0.437500 0.495145
v 0.456009 -0.437500 0.483520
v -0.457200 -0.500000 -0.471430
v -0.395230 -0.500000 -0.533400
v -0.456009 -0.500000 -0.483520
v -0.452483 -0.500000 -0.495145
v -0.446756 -0.500000 -0.505859
v -0.439049 -0.500000 -0.515249
v -0.429659 -0.500000 -0.522956
v -0.418945 -0.500000 -0.528683
v -0.407320 -0.500000 -0.532209
v -0.395230 -0.437500 -0.533400
v -0.457200 -0.437500 -0.471430
v -0.407320 -0.437500 -0.532209
v -0.418945 -0.437500 -0.528683
v -0.429659 -0.437500 -0.522956
v -0.439049 -0.437500 -0.515249
v -0.446756 -0.437500 -0.505859
v -0.452483 -0.437500 -0.495145
v -0.456009 -0.437500 -0.483520
v -0.395230 -0.500000 0.533400
v -0.457200 -0.500000 0.471430
v -0.407320 -0.500000 0.532209
v -0.418945 -0.500000 0.528683
v -0.429659 -0.500000 0.522956
v -0.439049 -0.500000 0.515249
v -0.446756 -0.500000 0.505859
v -0.452483 -0.500000 0.495145
v -0.456009 -0.500000 0.483520
v -0.457200 -0.437500 0.471430
v -0.395230 -0.437500 0.533400
v -0.456009 -0.437500 0.483520
v -0.452483 -0.437500 0.495145
v -0.446756 -0.437500 0.505859
v -0.439049 -0.437500 0.515249
v -0.429659 -0.437500 0.522956
v -0.418945 -0.437500 0.528683
v -0.407320 -0.437500 0.532209
vt 0.997909 0.004459
vt 0.975493 0.004459
vt 0.975493 0.207307
vt 0.997909 0.207307
vt 0.997909 0.726933
vt 0.975493 0.726933
vt 0.975493 0.968890
vt 0.997909 0.968890
vt 0.484407 0.937279
vt 0.483779 0.948514
vt 0.481919 0.959319
vt 0.478899 0.969276
vt 0.474833 0.978003
vt 0.469880 0.985166
vt 0.464229 0.990488
vt 0.458097 0.993765
vt 0.451719 0.994872
vt 0.034767 0.994872
vt 0.028390 0.993765
vt 0.022258 0.990488
vt 0.016607 0.985166
vt 0.011653 0.978003
vt 0.007588 0.969276
vt 0.004567 0.959318
vt 0.002707 0.948514
vt 0.002079 0.937279
vt 0.002079 0.061012
vt 0.002707 0.049776
vt 0.004567 0.038972
vt 0.007588 0.029015
vt 0.011653 0.020288
vt 0.016607 0.013125
vt 0.022258 0.007803
vt 0.028390 0.004525
vt 0.034767 0.003419
vt 0.451719 0.003419
vt 0.458097 0.004525
vt 0.464229 0.007803
vt 0.469880 0.013125
vt 0.474833 0.020288
vt 0.478899 0.029015
vt 0.481919 0.038972
vt 0.483779 0.049776
vt 0.484407 0.061012
vt 0.997909 0.232247
vt 0.975493 0.232247
vt 0.975493 0.474205
vt 0.997909 0.474205
vt 0.997909 0.499145
vt 0.975493 0.499145
vt 0.975493 0.701993
vt 0.997909 0.701993
vt 0.975493 0.210425
vt 0.997909 0.210425
vt 0.975493 0.213542
vt 0.997909 0.213542
vt 0.975493 0.216660
vt 0.997909 0.216660
vt 0.975493 0.219777
vt 0.997909 0.219777
vt 0.975493 0.222895
vt 0.997909 0.222895
vt 0.975493 0.226012
vt 0.997909 0.226012
vt 0.975493 0.229130
vt 0.997909 0.229130
vt 0.997909 0.496027
vt 0.975493 0.496027
vt 0.997909 0.492910
vt 0.975493 0.492910
vt 0.997909 0.489792
vt 0.975493 0.489792
vt 0.997909 0.486675
vt 0.975493 0.486675
vt 0.997909 0.483557
vt 0.975493 0.483557
vt 0.997909 0.480440
vt 0.975493 0.480440
vt 0.997909 0.477322
vt 0.975493 0.477322
vt 0.997909 0.723816
vt 0.975493 0.723816
vt 0.997909 0.720698
vt 0.975493 0.720698
vt 0.997909 0.717580
vt 0.975493 0.717580
vt 0.997909 0.714463
vt 0.975493 0.714463
vt 0.997909 0.711346
vt 0.975493 0.711346
vt 0.997909 0.708228
vt 0.975493 0.708228
vt 0.997909 0.705111
vt 0.975493 0.705111
vt 0.975493 0.993830
vt 0.997909 0.993830
vt 0.997909 0.990712
vt 0.975493 0.990712
vt 0.997909 0.987595
vt 0.975493 0.987595
vt 0.997909 0.984478
vt 0.975493 0.984478
vt 0.997909 0.981360
vt 0.975493 0.981360
vt 0.997909 0.978243
vt 0.975493 0.978243
vt 0.997909 0.975125
vt 0.975493 0.975125
vt 0.997909 0.972008
vt 0.975493 0.972008
vt 0.488565 0.937279
vt 0.489194 0.948514
vt 0.491054 0.959319
vt 0.494074 0.969276
vt 0.498140 0.978003
vt 0.503093 0.985166
vt 0.508744 0.990488
vt 0.514876 0.993765
vt 0.521254 0.994872
vt 0.938206 0.994872
vt 0.944583 0.993765
vt 0.950715 0.990488
vt 0.956366 0.985166
vt 0.961320 0.978003
vt 0.965385 0.969276
vt 0.968406 0.959318
vt 0.970266 0.948514
vt 0.970894 0.937279
vt 0.970894 0.061012
vt 0.970266 0.049776
vt 0.968406 0.038972
vt 0.965385 0.029015
vt 0.961320 0.020288
vt 0.956366 0.013125
vt 0.950715 0.007803
vt 0.944583 0.004525
vt 0.938206 0.003419
vt 0.521254 0.003419
vt 0.514876 0.004525
vt 0.508744 0.007803
vt 0.503093 0.013125
vt 0.498140 0.020288
vt 0.494074 0.029015
vt 0.491054 0.038972
vt 0.489194 0.049776
vt 0.488565 0.061012
vn 0.0000 0.0000 -1.0000
vn -1.0000 0.0000 0.0000
vn 0.0000 1.0000 -0.0000
vn 1.0000 0.0000 0.0000
vn 0.0000 0.0000 1.0000
vn 0.0980 0.0000 -0.9952
vn 0.2903 0.0000 -0.9569
vn 0.4714 0.0000 -0.8819
vn 0.6344 0.0000 -0.7730
vn 0.7730 0.0000 -0.6344
vn 0.8819 0.0000 -0.4714
vn 0.9569 0.0000 -0.2903
vn 0.9952 0.0000 -0.0980
vn 0.0980 0.0000 0.9952
vn 0.2903 0.0000 0.9569
vn 0.4714 0.0000 0.8819
vn 0.6344 0.0000 0.7730
vn 0.7730 0.0000 0.6344
vn 0.8819 0.0000 0.4714
vn 0.9569 0.0000 0.2903
vn 0.9952 0.0000 0.0980
vn -0.9952 0.0000 0.0980
vn -0.9569 0.0000 0.2903
vn -0.8819 0.0000 0.4714
vn -0.7730 0.0000 0.6344
vn -0.6344 0.0000 0.7730
vn -0.4714 0.0000 0.8819
vn -0.2903 0.0000 0.9569
vn -0.0980 0.0000 0.9952
vn -0.0980 0.0000 -0.9952
vn -0.2903 0.0000 -0.9569
vn -0.4714 0.0000 -0.8819
vn -0.6344 0.0000 -0.7730
vn -0.7730 0.0000 -0.6344
vn -0.8819 0.0000 -0.4714
vn -0.9569 0.0000 -0.2903
vn -0.9952 0.0000 -0.0980
vn 0.0000 -1.0000 -0.0000
g Cube_Cube_None
s off
f 38/1/1 46/2/1 11/3/1 1/4/1
f 56/5/2 64/6/2 47/7/2 37/8/2
f 64/9/3 66/10/3 67/11/3 68/12/3 69/13/3 70/14/3 71/15/3 72/16/3 65/17/3 28/18/3 30/19/3 31/20/3 32/21/3 33/22/3 34/23/3 35/24/3 36/25/3 29/26/3 10/27/3 12/28/3 13/29/3 14/30/3 15/31/3 16/32/3 17/33/3 18/34/3 11/35/3 46/36/3 48/37/3 49/38/3 50/39/3 51/40/3 52/41/3 53/42/3 54/43/3 47/44/3
f 2/45/4 10/46/4 29/47/4 19/48/4
f 20/49/5 28/50/5 65/51/5 55/52/5
f 1/4/6 11/3/6 18/53/6 3/54/6
f 3/54/7 18/53/7 17/55/7 4/56/7
f 4/56/8 17/55/8 16/57/8 5/58/8
f 5/58/9 16/57/9 15/59/9 6/60/9
f 6/60/10 15/59/10 14/61/10 7/62/10
f 7/62/11 14/61/11 13/63/11 8/64/11
f 8/64/12 13/63/12 12/65/12 9/66/12
f 9/66/13 12/65/13 10/46/13 2/45/13
f 28/50/14 20/49/14 27/67/14 30/68/14
f 30/68/15 27/67/15 26/69/15 31/70/15
f 31/70/16 26/69/16 25/71/16 32/72/16
f 32/72/17 25/71/17 24/73/17 33/74/17
f 33/74/18 24/73/18 23/75/18 34/76/18
f 34/76/19 23/75/19 22/77/19 35/78/19
f 35/78/20 22/77/20 21/79/20 36/80/20
f 36/80/21 21/79/21 19/48/21 29/47/21
f 64/6/22 56/5/22 63/81/22 66/82/22
f 66/82/23 63/81/23 62/83/23 67/84/23
f 67/84/24 62/83/24 61/85/24 68/86/24
f 68/86/25 61/85/25 60/87/25 69/88/25
f 69/88/26 60/87/26 59/89/26 70/90/26
f 70/90/27 59/89/27 58/91/27 71/92/27
f 71/92/28 58/91/28 57/93/28 72/94/28
f 72/94/29 57/93/29 55/52/29 65/51/29
f 46/95/30 38/96/30 45/97/30 48/98/30
f 48/98/31 45/97/31 44/99/31 49/100/31
f 49/100/32 44/99/32 43/101/32 50/102/32
f 50/102/33 43/101/33 42/103/33 51/104/33
f 51/104/34 42/103/34 41/105/34 52/106/34
f 52/106/35 41/105/35 40/107/35 53/108/35
f 53/108/36 40/107/36 39/109/36 54/110/36
f 54/110/37 39/109/37 37/8/37 47/7/37
f 19/111/38 21/112/38 22/113/38 23/114/38 24/115/38 25/116/38 26/117/38 27/118/38 20/119/38 55/120/38 57/121/38 58/122/38 59/123/38 60/124/38 61/125/38 62/126/38 63/127/38 56/128/38 37/129/38 39/130/38 40/131/38 41/132/38 42/133/38 43/134/38 44/135/38 45/136/38 38/137/38 1/138/38 3/139/38 4/140/38 5/141/38 6/142/38 7/143/38 8/144/38 9/145/38 2/146/38
